<svg xmlns="http://www.w3.org/2000/svg" width="16" height="10.031" viewBox="0 0 16 10.031">
  <path id="Icon_awesome-behance" data-name="Icon awesome-behance" d="M6.444,9.8A2.108,2.108,0,0,0,7.789,7.74C7.789,5.779,6.328,5.3,4.642,5.3H0v9.844H4.772c1.789,0,3.469-.858,3.469-2.858A2.372,2.372,0,0,0,6.444,9.8ZM2.164,6.982H4.194c.781,0,1.483.219,1.483,1.125,0,.836-.547,1.172-1.319,1.172H2.164v-2.3Zm2.314,6.492H2.164V10.763H4.522c.953,0,1.556.4,1.556,1.406s-.719,1.306-1.6,1.306Zm9.958-6.686H10.444V5.818h3.992ZM16,11.685c0-2.108-1.233-3.867-3.469-3.867A3.582,3.582,0,0,0,8.883,11.59a3.472,3.472,0,0,0,3.647,3.742,3.178,3.178,0,0,0,3.336-2.4H14.139a1.622,1.622,0,0,1-1.547.931,1.612,1.612,0,0,1-1.75-1.814h5.142C15.992,11.935,16,11.81,16,11.685Zm-5.156-.867A1.53,1.53,0,0,1,12.469,9.3a1.459,1.459,0,0,1,1.561,1.522Z" transform="translate(0 -5.302)" />
</svg>
