<svg id="discord" data-name="discord" width="24.999" height="20" xmlns="http://www.w3.org/2000/svg" viewBox="0 0 133.18 95.79">
	<path fill="#fff"
		d="M34.78,95.78s4.21-5.13,7.64-9.47a35.47,35.47,0,0,1-20-13.45c1.68,1.17,4.44,2.7,4.68,2.85a83.13,83.13,0,0,0,71.15,4A65.48,65.48,0,0,0,111.4,73,36,36,0,0,1,90.76,86.54c3.42,4.33,7.53,9.24,7.53,9.24a41.7,41.7,0,0,0,34.89-17.33A152.77,152.77,0,0,0,116.76,12a56.44,56.44,0,0,0-32-12l-1.6,1.82A76,76,0,0,1,111.51,16.3,96.87,96.87,0,0,0,26.31,13c-4.22,1.94-6.72,3.31-6.72,3.31a76.86,76.86,0,0,1,30-15L48.48,0a56.44,56.44,0,0,0-32,12A152.79,152.79,0,0,0,0,78.45,41.35,41.35,0,0,0,34.78,95.78ZM86.9,42.52A12.15,12.15,0,0,1,98.53,55.16v0A11.68,11.68,0,1,1,86.9,42.52Zm-41.62,0h.17A12.09,12.09,0,0,1,56.91,55.19v0A12.15,12.15,0,0,1,45.28,67.85a12.7,12.7,0,0,1,0-25.33Z" />
	<polygon fill="#fff" points="45.27 42.52 45.28 42.52 45.28 42.52 45.27 42.52" />
</svg>