<svg xmlns="http://www.w3.org/2000/svg" width="16" height="16" viewBox="0 0 16 16">
  <path id="Icon_awesome-dribbble" data-name="Icon awesome-dribbble" d="M8.563.563a8,8,0,1,0,8,8A8.009,8.009,0,0,0,8.563.563Zm5.289,3.689a6.8,6.8,0,0,1,1.543,4.257,15.969,15.969,0,0,0-4.758-.22c-.186-.453-.361-.851-.6-1.342A9.1,9.1,0,0,0,13.852,4.252Zm-.76-.79A7.715,7.715,0,0,1,9.511,5.93a36.475,36.475,0,0,0-2.55-4,6.816,6.816,0,0,1,6.131,1.532ZM5.657,2.389A43.6,43.6,0,0,1,8.191,6.341a25.488,25.488,0,0,1-6.317.833A6.858,6.858,0,0,1,5.657,2.389ZM1.729,8.573c0-.07,0-.139,0-.209a25.206,25.206,0,0,0,7.023-.972c.2.383.382.771.554,1.16a10.584,10.584,0,0,0-5.824,4.591A6.806,6.806,0,0,1,1.729,8.573Zm2.639,5.391A9.611,9.611,0,0,1,9.774,9.681a28.4,28.4,0,0,1,1.458,5.182,6.819,6.819,0,0,1-6.863-.9Zm8.012.274a29.493,29.493,0,0,0-1.327-4.872,10.03,10.03,0,0,1,4.256.292,6.845,6.845,0,0,1-2.929,4.58Z" transform="translate(-0.563 -0.563)"/>
</svg>
