<svg xmlns="http://www.w3.org/2000/svg" width="24.999" height="20" viewBox="0 0 24.999 20">
	<path id="github" data-name="github"
		d="M9.692,18.286c0,1.089-.568,2.87-1.911,2.87S5.87,19.375,5.87,18.286s.568-2.87,1.911-2.87S9.692,17.2,9.692,18.286ZM25,15.656a11.288,11.288,0,0,1-.911,4.948c-1.974,3.989-7.4,3.9-11.286,3.9-3.948,0-9.7.141-11.75-3.9A11.148,11.148,0,0,1,0,15.656,8.957,8.957,0,0,1,2.161,9.739,8.153,8.153,0,0,1,1.76,7.2a5.186,5.186,0,0,1,.76-2.7A8.138,8.138,0,0,1,8.187,6.375a19.95,19.95,0,0,1,4.62-.521,17.966,17.966,0,0,1,4.187.479A8.049,8.049,0,0,1,22.609,4.5a5.138,5.138,0,0,1,.76,2.7,8.038,8.038,0,0,1-.4,2.51A8.974,8.974,0,0,1,25,15.656Zm-3.349,2.63c0-2.286-1.391-4.3-3.828-4.3a21.414,21.414,0,0,0-2.917.312,15.3,15.3,0,0,1-2.349.167,15.4,15.4,0,0,1-2.349-.167,21.067,21.067,0,0,0-2.917-.312c-2.437,0-3.828,2.016-3.828,4.3,0,4.573,4.187,5.276,7.833,5.276h2.51c3.661,0,7.844-.7,7.844-5.276Zm-4.3-2.87c-1.344,0-1.911,1.781-1.911,2.87s.568,2.87,1.911,2.87,1.911-1.781,1.911-2.87S18.692,15.416,17.348,15.416Z"
		transform="translate(0 -4.5)"/>
</svg>
