<svg xmlns="http://www.w3.org/2000/svg" width="20" height="20" viewBox="0 0 20 20">
  <path id="Icon_open-magnifying-glass" data-name="Icon open-magnifying-glass" d="M8.671-.02a8.671,8.671,0,1,0,0,17.343,8.571,8.571,0,0,0,4.113-1.016,2.477,2.477,0,0,0,.322.322l2.478,2.478a2.527,2.527,0,1,0,3.568-3.568l-2.478-2.478a2.478,2.478,0,0,0-.4-.322,8.555,8.555,0,0,0,1.09-4.113A8.681,8.681,0,0,0,8.7-.045Zm0,2.478a6.165,6.165,0,0,1,6.194,6.194,6.213,6.213,0,0,1-1.635,4.261l-.074.074a2.477,2.477,0,0,0-.322.322A6.2,6.2,0,0,1,8.647,14.87a6.194,6.194,0,0,1,0-12.388Z" transform="translate(0 0.045)" fill="#5d617d"/>
</svg>
