<svg xmlns="http://www.w3.org/2000/svg" width="16" height="16.758" viewBox="0 0 16 16.758">
  <path id="Icon_simple-gumroad" data-name="Icon simple-gumroad" d="M11.486,10.522a.711.711,0,1,1-.712.711.711.711,0,0,1,.712-.711ZM15.327.775a.711.711,0,1,1-.71.711.711.711,0,0,1,.71-.711ZM2.755,2.17H14.008A1.487,1.487,0,1,0,13.952.928H2.754A1.89,1.89,0,0,0,.815,2.806V14.786a1.983,1.983,0,0,0,1.94,1.973H14.734a1.945,1.945,0,0,0,1.912-1.973V7.679a1.929,1.929,0,0,0-1.912-1.941H7.627a2,2,0,0,0-2,1.941V9.913a1.945,1.945,0,0,0,2,1.879h2.482a1.487,1.487,0,1,0,.057-1.242H7.627a.712.712,0,0,1-.76-.638V7.679a.76.76,0,0,1,.76-.7h7.106a.677.677,0,0,1,.67.7v7.106a.713.713,0,0,1-.67.731H2.755a.734.734,0,0,1-.7-.731V2.807a.655.655,0,0,1,.7-.637" transform="translate(-0.814)" fill="#383c5b"/>
</svg>
