<svg xmlns="http://www.w3.org/2000/svg" width="22" height="22" viewBox="0 0 22 22">
  <g id="Icon_ionic-ios-help-circle-outline" data-name="Icon ionic-ios-help-circle-outline" transform="translate(-3.375 -3.375)">
    <path id="Path_293" data-name="Path 293" d="M14.375,4.856A9.515,9.515,0,1,1,7.643,7.643a9.456,9.456,0,0,1,6.732-2.787m0-1.481a11,11,0,1,0,11,11,11,11,0,0,0-11-11Z" fill="#5d617d"/>
    <path id="Path_294" data-name="Path 294" d="M18.049,11.25c2.637,0,4.451,1.462,4.451,3.565a3.439,3.439,0,0,1-1.976,3.122c-1.223.71-1.638,1.23-1.638,2.13v.555h-2.44l-.021-.6a2.927,2.927,0,0,1,1.659-3.094c1.188-.71,1.688-1.16,1.688-2.032A1.707,1.707,0,0,0,17.88,13.38,1.779,1.779,0,0,0,16,15.11H13.5C13.549,12.846,15.223,11.25,18.049,11.25ZM16.2,23.3a1.509,1.509,0,1,1,1.5,1.448A1.473,1.473,0,0,1,16.2,23.3Z" transform="translate(-3.625 -3.625)" fill="#5d617d"/>
  </g>
</svg>
