
<svg xmlns="http://www.w3.org/2000/svg" xmlns:xlink="http://www.w3.org/1999/xlink" width="38.766" height="27" viewBox="0 0 38.766 27">
  <defs>
    <linearGradient id="linear-gradient" x1="0.872" x2="0.274" y2="1" gradientUnits="objectBoundingBox">
      <stop offset="0" stop-color="#fb33d3"/>
      <stop offset="0.481" stop-color="#bf03b1"/>
      <stop offset="1" stop-color="#5d0156"/>
    </linearGradient>
  </defs>
  <g id="Ostudio" transform="translate(0)">
    <path id="Path_2" data-name="Path 2" d="M198.555,23.965l.007,0a2.151,2.151,0,0,1,1.325-.456l5.049,0V19.046l-3.3,0a12.917,12.917,0,0,0-3.813.575,9.655,9.655,0,0,0-2.928,1.467,6.249,6.249,0,0,0-2.73,5.159v.119c0,.266.017.532.045.8a6.042,6.042,0,0,0,2.217,4.187,20.409,20.409,0,0,0,7.192,3.29,10.762,10.762,0,0,1,3.76,1.732,2.927,2.927,0,0,1,.942,1.542,3.665,3.665,0,0,1,.107.88,2.833,2.833,0,0,1-1.147,2.383,1.976,1.976,0,0,1-1.192.4H192.212l-8.469,4.456h18.983a10.924,10.924,0,0,0,3.266-.5,9.212,9.212,0,0,0,3.035-1.453,6.177,6.177,0,0,0,2.624-5.216,8.965,8.965,0,0,0-.055-.951,6.59,6.59,0,0,0-2.11-4.3,16.2,16.2,0,0,0-6.613-3.234,16.605,16.605,0,0,1-4.3-1.831,2.727,2.727,0,0,1-1.046-1.381,2.9,2.9,0,0,1,1.03-3.2Z" transform="translate(-172.889 -19.046)" fill="url(#linear-gradient)"/>
    <path id="Path_3" data-name="Path 3" d="M208.07,23.5V19.049h.854l2.2,1.763a.59.59,0,0,1,.092.829c-.027.034-2.294,1.855-2.294,1.855Z" transform="translate(-173.782 -19.046)" fill="url(#linear-gradient)"/>
    <path id="Path_1" data-name="Path 1" d="M194.278,30.191v4.722a10.988,10.988,0,0,1-3.043,8,10.545,10.545,0,0,1-7.906,3.122,11.084,11.084,0,0,1-5.663-1.431,9.867,9.867,0,0,1-3.828-3.963,11.942,11.942,0,0,1-1.356-5.733V30.189a11.067,11.067,0,0,1,3.01-7.994,10.4,10.4,0,0,1,7.847-3.132,10.526,10.526,0,0,1,7.885,3.132,10.986,10.986,0,0,1,3.054,8m-5.224,4.722V30.15a7.872,7.872,0,0,0-1.535-5.052,5.058,5.058,0,0,0-4.186-1.931,4.945,4.945,0,0,0-4.137,1.911,8.039,8.039,0,0,0-1.485,5.073v4.762a8.085,8.085,0,0,0,1.5,5.113,4.972,4.972,0,0,0,4.148,1.931,5.025,5.025,0,0,0,4.167-1.931A8.013,8.013,0,0,0,189.054,34.913Z" transform="translate(-172.475 -19.046)" fill="url(#linear-gradient)"/>
  </g>
</svg>
