<svg id="Oviron_space" data-name="Oviron space" xmlns="http://www.w3.org/2000/svg" width="14.25" height="14.25" viewBox="0 0 14.25 14.25">
  <path id="Path_6" data-name="Path 6" d="M669.349,22.68a3.911,3.911,0,0,1-2.467.864,3.96,3.96,0,0,1-3.912-3.376c0,.022-.006.045-.009.068a5.265,5.265,0,0,0,8.27,5,7.124,7.124,0,0,0-5.085-12.73c.04,0,.077.015.117.02.107.014.211.035.316.055.154.028.306.059.456.1.107.029.211.063.315.1.144.048.285.1.424.158.1.043.2.089.3.139.135.066.265.137.394.213.1.056.191.113.284.175.125.084.245.174.364.267.086.068.173.133.256.206.117.1.226.214.335.327.073.075.148.146.217.226.113.13.215.27.317.411.052.072.11.14.159.215a5.727,5.727,0,0,1,.948,3.179,5.833,5.833,0,0,1-1.294,3.658,3.955,3.955,0,0,1-.708.732" transform="translate(-659.757 -12.465)" fill="#fff"/>
  <path id="Path_7" data-name="Path 7" d="M664.735,17.02A5.294,5.294,0,0,0,659.97,14a5.226,5.226,0,0,0-3.138,1.036A7.125,7.125,0,0,0,661.321,27.7c.16,0,.318-.005.476-.016h0c-.023,0-.046-.011-.069-.014a5.725,5.725,0,0,1-.689-.151c-.086-.025-.167-.058-.252-.086-.16-.054-.319-.109-.473-.177-.093-.04-.182-.087-.273-.132-.14-.069-.277-.142-.411-.222-.09-.054-.177-.112-.264-.171q-.191-.129-.37-.272c-.082-.066-.163-.132-.242-.2-.117-.1-.228-.214-.336-.328-.07-.073-.141-.144-.207-.221-.112-.13-.215-.269-.316-.409-.051-.071-.106-.137-.153-.21a5.7,5.7,0,0,1-.386-.684,5.82,5.82,0,0,1,1-6.445,3.954,3.954,0,0,1,6.85,1.874c0-.014,0-.028.005-.043.017-.171.028-.344.028-.517a5.219,5.219,0,0,0-.5-2.251m-8.386-.484a1.063,1.063,0,1,1,1.063,1.063,1.063,1.063,0,0,1-1.063-1.063" transform="translate(-654.196 -13.445)" fill="#fff"/>
</svg>
