
<svg xmlns="http://www.w3.org/2000/svg" xmlns:xlink="http://www.w3.org/1999/xlink" width="36.859" height="36.86" viewBox="0 0 36.859 36.86">
  <defs>
    <linearGradient id="linear-gradient" x1="0.759" y1="0.124" x2="0" y2="1" gradientUnits="objectBoundingBox">
      <stop offset="0" stopColor="#f1d740"/>
      <stop offset="0.112" stopColor="#f4883b"/>
      <stop offset="0.392" stopColor="#bf03b1"/>
      <stop offset="0.776" stopColor="#014ef9"/>
      <stop offset="1" stopColor="#22d3f8"/>
    </linearGradient>
  </defs>
  <g id="Oviron_space" data-name="Oviron space" transform="translate(0)">
    <path id="Path_6" data-name="Path 6" d="M679.567,38.887a10.116,10.116,0,0,1-6.38,2.236,10.244,10.244,0,0,1-10.118-8.731c-.008.058-.017.117-.024.176a13.619,13.619,0,0,0,21.392,12.925,18.428,18.428,0,0,0-13.153-32.929c.1.01.2.039.3.052.276.036.545.092.817.142.4.073.792.153,1.18.258.276.075.545.163.814.253.371.124.737.257,1.1.408.266.112.526.231.784.358.348.17.686.355,1.019.55.249.146.494.293.734.453.324.216.633.45.94.691.224.175.448.345.661.532.3.267.585.555.866.845.188.195.384.379.561.584.293.337.557.7.82,1.062.136.187.284.362.412.556a14.812,14.812,0,0,1,2.453,8.222,15.087,15.087,0,0,1-3.348,9.461,10.234,10.234,0,0,1-1.83,1.895" transform="translate(-654.757 -12.465)" fill="url(#linear-gradient)"/>
    <path id="Path_7" data-name="Path 7" d="M681.456,21.809A13.694,13.694,0,0,0,669.131,14a13.518,13.518,0,0,0-8.116,2.68,18.43,18.43,0,0,0,11.61,32.743q.619,0,1.231-.04l-.01,0c-.061-.008-.118-.028-.178-.037a14.8,14.8,0,0,1-1.781-.39c-.222-.064-.433-.15-.651-.223-.413-.139-.824-.283-1.224-.457-.24-.1-.471-.225-.706-.342-.361-.18-.717-.367-1.062-.574-.233-.14-.458-.289-.684-.442q-.493-.333-.956-.7c-.213-.17-.422-.341-.626-.522-.3-.269-.589-.555-.87-.849-.182-.189-.365-.372-.536-.571-.291-.337-.556-.7-.817-1.059-.131-.182-.273-.354-.4-.543a14.741,14.741,0,0,1-1-1.769,15.054,15.054,0,0,1,2.594-16.671,10.227,10.227,0,0,1,17.718,4.847c0-.036.01-.073.014-.11.044-.443.073-.89.073-1.338a13.5,13.5,0,0,0-1.3-5.821m-21.691-1.252a2.749,2.749,0,1,1,2.749,2.749,2.749,2.749,0,0,1-2.749-2.749" transform="translate(-654.196 -12.564)" fill="url(#linear-gradient)"/>
  </g>
</svg>
