<svg xmlns="http://www.w3.org/2000/svg" width="24.608" height="20" viewBox="0 0 24.608 20">
	<path id="twitter" data-name="twitter"
		d="M24.559,5.751a10.253,10.253,0,0,1-2.9.795,5.083,5.083,0,0,0,2.218-2.792,10.42,10.42,0,0,1-3.206,1.214A5.043,5.043,0,0,0,11.949,8.41a5.162,5.162,0,0,0,.13,1.152,14.287,14.287,0,0,1-10.4-5.256A4.944,4.944,0,0,0,1,6.845a5.045,5.045,0,0,0,2.243,4.2,5.028,5.028,0,0,1-2.284-.632v.063A5.047,5.047,0,0,0,5,15.424a5.091,5.091,0,0,1-2.268.087,5.061,5.061,0,0,0,4.72,3.5A10.117,10.117,0,0,1,1.2,21.173,10.707,10.707,0,0,1,0,21.1a14.349,14.349,0,0,0,7.748,2.265A14.249,14.249,0,0,0,22.1,9.03c0-.214,0-.431-.015-.646a10.187,10.187,0,0,0,2.522-2.612l-.048-.021Z"
		transform="translate(0 -3.369)" fill="#fff" />
</svg>