<svg id="Layer_1" data-name="Layer 1" xmlns="http://www.w3.org/2000/svg" xmlns:xlink="http://www.w3.org/1999/xlink" viewBox="0 0 150 150"><defs><style>.cls-1{fill:url(#linear-gradient);}.cls-2{fill:url(#linear-gradient-2);}</style><linearGradient id="linear-gradient" x1="55.06" y1="114.43" x2="111.96" y2="15.87" gradientUnits="userSpaceOnUse"><stop offset="0" stop-color="#091687"/><stop offset="0.08" stop-color="#101c90"/><stop offset="0.2" stop-color="#212ea9"/><stop offset="0.35" stop-color="#3c48ce"/><stop offset="0.46" stop-color="#6131ae"/><stop offset="0.6" stop-color="#951181"/><stop offset="0.8" stop-color="#f17d40"/><stop offset="1" stop-color="#f1d740"/></linearGradient><linearGradient id="linear-gradient-2" x1="-7492.67" y1="7650.47" x2="-7591.62" y2="7733.5" gradientTransform="matrix(0, 1, 1, 0, -7623.14, 7623.14)" gradientUnits="userSpaceOnUse"><stop offset="0" stop-color="#2fbbd8"/><stop offset="0.06" stop-color="#31a7d6"/><stop offset="0.2" stop-color="#3774d2"/><stop offset="0.3" stop-color="#3c48ce"/><stop offset="0.39" stop-color="#6131ae"/><stop offset="0.5" stop-color="#951181"/><stop offset="0.7" stop-color="#e77147"/><stop offset="1" stop-color="#b52415"/></linearGradient></defs><path class="cls-1" d="M38.25,111.69A54.8,54.8,0,0,1,47.69,51a36.35,36.35,0,0,0,50,52.4,36.65,36.65,0,0,0,6.58-6.82A54.78,54.78,0,0,0,29,18.14,73.12,73.12,0,1,1,119.55,133a54.77,54.77,0,0,1-81.3-21.29Z"/><path class="cls-2" d="M87.82,143.12A54.79,54.79,0,0,1,47.69,51a37.78,37.78,0,0,1,4.52-4.33,36.35,36.35,0,0,1,52,49.91A54.78,54.78,0,0,0,29,18.14,73.12,73.12,0,0,0,119.55,133,54.48,54.48,0,0,1,87.82,143.12Zm-61.95-108a10.51,10.51,0,1,1,10.51,10.5A10.51,10.51,0,0,1,25.87,35.13Z"/></svg>