<svg xmlns="http://www.w3.org/2000/svg" width="16.966" height="16" viewBox="0 0 16.966 16">
  <path id="Icon_ionic-md-arrow-round-forward" data-name="Icon ionic-md-arrow-round-forward" d="M15.5,21.878l6.656-6.459a1.468,1.468,0,0,0,.434-1.08V14.32a1.468,1.468,0,0,0-.434-1.08L15.5,6.782a1.425,1.425,0,0,0-2.082,0,1.594,1.594,0,0,0,0,2.179l4,3.827H7.1a1.544,1.544,0,0,0,0,3.085H17.415l-4,3.827a1.594,1.594,0,0,0,0,2.179A1.431,1.431,0,0,0,15.5,21.878Z" transform="translate(-5.625 -6.33)" fill="#0e141e"/>
</svg>
