<svg xmlns="http://www.w3.org/2000/svg" width="16.962" height="16" viewBox="0 0 16.962 16">
  <path id="Icon_ionic-md-arrow-round-back" data-name="Icon ionic-md-arrow-round-back" d="M21.116,12.787H10.8l4-3.827a1.594,1.594,0,0,0,0-2.179,1.425,1.425,0,0,0-2.082,0L6.059,13.241a1.468,1.468,0,0,0-.434,1.08v.019a1.468,1.468,0,0,0,.434,1.08l6.656,6.459a1.425,1.425,0,0,0,2.082,0,1.594,1.594,0,0,0,0-2.179l-4-3.827H21.112a1.509,1.509,0,0,0,1.475-1.542A1.493,1.493,0,0,0,21.116,12.787Z" transform="translate(-5.625 -6.33)" fill="#0e141e"/>
</svg>
