<svg id="Ocademy" xmlns="http://www.w3.org/2000/svg" width="14.104" height="13.5" viewBox="0 0 14.104 13.5">
  <path id="Path_11" data-name="Path 11" d="M511.546,38.753A1.856,1.856,0,0,0,513.4,36.9a1.83,1.83,0,0,0-.539-1.287h-.012a13.2,13.2,0,0,1-2.611,0h-.011a1.829,1.829,0,0,0-.54,1.287,1.856,1.856,0,0,0,1.857,1.856m-.682-2.941a.7.7,0,1,1-.7.7.7.7,0,0,1,.7-.7" transform="translate(-503.936 -27.674)" fill="#fff"/>
  <path id="Path_12" data-name="Path 12" d="M511.488,25.925l-.243-1.753-1.552.61-1.367.378a2.5,2.5,0,0,1-1.331,0l-1.344-.372-1.574-.616-.25,1.8-.063.45c0,.308.4.587,1.044.8a7.937,7.937,0,0,0,1.618.314,12.528,12.528,0,0,0,2.468,0,7.888,7.888,0,0,0,1.65-.325c.627-.208,1.012-.483,1.012-.786Z" transform="translate(-500.051 -20.173)" fill="#fff"/>
  <path id="Path_13" data-name="Path 13" d="M507.063,14.706a.478.478,0,0,0-.343-.343h0l-5.659-1.739a1.622,1.622,0,0,0-.949,0l-5.66,1.739a.478.478,0,0,0,0,.925l.932.286a1.6,1.6,0,0,0-.439.539.627.627,0,0,0-.581.668.633.633,0,0,0,.1.294l-1.42,1.92a.324.324,0,0,0,.068.454.318.318,0,0,0,.061.036l1.04.462a.325.325,0,0,0,.428-.165.3.3,0,0,0,.022-.067l.473-2.341a.624.624,0,0,0,.4-.989.957.957,0,0,1,.688-.51l3.893,1.152a1.624,1.624,0,0,0,.95,0l5.66-1.739a.478.478,0,0,0,.343-.582" transform="translate(-492.974 -12.553)" fill="#fff"/>
  <path id="Path_15" data-name="Path 15" d="M510.655,33.431a4.926,4.926,0,0,0-.46-2.076,1.048,1.048,0,0,1-.425.639,4.166,4.166,0,1,1-8.159.12.976.976,0,0,1-.458-.639,4.952,4.952,0,0,0,4.55,6.908h.027a4.951,4.951,0,0,0,4.926-4.951" transform="translate(-498.073 -24.883)" fill="#fff"/>
</svg>
