<svg xmlns="http://www.w3.org/2000/svg" width="14" height="10.204" viewBox="0 0 14 10.204">
  <g id="orchive-icon-small" transform="translate(0 0.01)">
    <path id="Path_22" data-name="Path 22" d="M66.623,8.442h0l-3.6-7.6a.39.39,0,0,0-.514-.2l-.024.012h0L60.337,1.807a.43.43,0,0,0-.217.4V.427a.414.414,0,0,0-.4-.427h-2.4a.414.414,0,0,0-.4.426V9.778a.415.415,0,0,0,.4.425h2.4a.414.414,0,0,0,.4-.425V2.22a.441.441,0,0,0,.039.158l3.6,7.592a.374.374,0,0,0,.062.083.273.273,0,0,0,.02.028.382.382,0,0,0,.1.07l.031.019a.384.384,0,0,0,.12.025c.01,0,.018.006.028.006h.007a.368.368,0,0,0,.1-.022.284.284,0,0,0,.056-.016.018.018,0,0,0,.013,0l2.144-1.148A.439.439,0,0,0,66.623,8.442Zm-8.9-5.89V1.7h1.6v.851Zm3.859.809-.394-.737,1.392-.839.4.74Z" transform="translate(-52.665 -0.009)" fill="#fff"/>
    <path id="Path_23" data-name="Path 23" d="M2.773-.009H.4A.413.413,0,0,0,0,.417V9.768a.412.412,0,0,0,.4.425H2.773a.409.409,0,0,0,.4-.425V.418A.411.411,0,0,0,2.773-.009ZM.793,2.541V1.693H2.376v.849Z" transform="translate(0 0)" fill="#fff"/>
  </g>
</svg>
