<svg id="Ostudio" xmlns="http://www.w3.org/2000/svg" width="14.25" height="9.925" viewBox="0 0 14.25 9.925">
  <path id="Path_1" data-name="Path 1" d="M180.489,23.148v1.736a4.039,4.039,0,0,1-1.119,2.942,3.876,3.876,0,0,1-2.906,1.148,4.074,4.074,0,0,1-2.082-.526,3.627,3.627,0,0,1-1.407-1.457,4.389,4.389,0,0,1-.5-2.108V23.148a4.068,4.068,0,0,1,1.107-2.939,3.822,3.822,0,0,1,2.884-1.151,3.869,3.869,0,0,1,2.9,1.151,4.039,4.039,0,0,1,1.122,2.939m-1.92,1.736V23.133A2.894,2.894,0,0,0,178,21.276a1.859,1.859,0,0,0-1.539-.71,1.818,1.818,0,0,0-1.521.7,2.955,2.955,0,0,0-.546,1.865v1.751a2.972,2.972,0,0,0,.553,1.88,1.828,1.828,0,0,0,1.525.71,1.847,1.847,0,0,0,1.532-.71A2.945,2.945,0,0,0,178.569,24.884Z" transform="translate(-172.475 -19.052)" fill="#fff"/>
  <path id="Path_2" data-name="Path 2" d="M189.188,20.854l0,0a.791.791,0,0,1,.487-.167h1.856V19.046H190.32a4.748,4.748,0,0,0-1.4.211,3.55,3.55,0,0,0-1.076.539,2.3,2.3,0,0,0-1,1.9v.044c0,.1.006.2.017.292a2.221,2.221,0,0,0,.815,1.539,7.5,7.5,0,0,0,2.644,1.209,3.956,3.956,0,0,1,1.382.637,1.076,1.076,0,0,1,.346.567,1.347,1.347,0,0,1,.039.324,1.041,1.041,0,0,1-.422.876.726.726,0,0,1-.438.147h-4.365l-3.113,1.638h6.978a4.016,4.016,0,0,0,1.2-.184,3.386,3.386,0,0,0,1.116-.534A2.271,2.271,0,0,0,194,26.332a3.3,3.3,0,0,0-.02-.349,2.423,2.423,0,0,0-.775-1.582,5.954,5.954,0,0,0-2.431-1.189,6.1,6.1,0,0,1-1.581-.673,1,1,0,0,1-.385-.508,1.064,1.064,0,0,1,.379-1.178Z" transform="translate(-179.753 -19.046)" fill="#fff"/>
  <path id="Path_3" data-name="Path 3" d="M208.07,20.683V19.049h.314l.809.648a.217.217,0,0,1,.034.3c-.01.012-.843.682-.843.682Z" transform="translate(-195.466 -19.048)" fill="#fff"/>
</svg>
